<?xml version="1.0" standalone="no"?>
<!DOCTYPE svg PUBLIC "-//W3C//DTD SVG 20010904//EN"
 "http://www.w3.org/TR/2001/REC-SVG-20010904/DTD/svg10.dtd">
<svg version="1.0" xmlns="http://www.w3.org/2000/svg"
 width="512.000000pt" height="512.000000pt" viewBox="0 0 512.000000 512.000000"
 preserveAspectRatio="xMidYMid meet">

<g transform="translate(0.000000,512.000000) scale(0.100000,-0.100000)"
fill="#000000" stroke="none">
<path d="M1111 4805 c-52 -16 -116 -75 -142 -130 -18 -39 -19 -113 -19 -2100
0 -1352 4 -2072 10 -2096 13 -47 81 -124 134 -152 l41 -22 954 -3 c1066 -3
1024 -5 1102 65 78 70 83 91 87 326 4 193 3 207 -14 207 -10 0 -57 -5 -106
-11 l-88 -12 0 -168 c0 -162 -1 -168 -22 -183 -20 -14 -125 -16 -933 -16 -808
0 -913 2 -933 16 l-22 15 0 2035 0 2035 156 -3 156 -3 20 -54 c25 -65 80 -122
134 -139 30 -9 165 -12 495 -12 419 0 457 2 495 19 52 24 108 90 124 146 l13
45 136 0 c107 0 141 -3 159 -16 l22 -15 0 -488 0 -488 68 -6 c37 -4 84 -9 105
-13 l37 -7 0 519 0 519 -24 50 c-12 28 -41 67 -64 87 -78 71 -36 68 -1091 67
-772 0 -954 -3 -990 -14z m1329 -220 c26 -32 -13 -81 -47 -59 -35 22 -23 74
17 74 10 0 23 -7 30 -15z m-155 -25 l0 -25 -263 -3 c-227 -2 -263 0 -268 13
-4 8 -4 22 0 30 5 13 41 15 268 13 l263 -3 0 -25z"/>
<path d="M2885 3419 c-296 -25 -548 -147 -753 -364 -139 -147 -240 -326 -288
-512 -32 -124 -43 -350 -24 -481 26 -181 109 -379 217 -523 29 -39 57 -78 62
-87 6 -12 -18 -87 -85 -266 -52 -136 -94 -255 -94 -262 0 -8 6 -17 14 -20 8
-3 125 56 261 130 135 75 255 136 265 136 11 0 52 -13 92 -29 154 -61 236 -75
433 -76 167 0 188 2 290 29 199 51 345 128 490 256 153 135 260 288 335 479
64 164 87 420 55 611 -76 456 -414 829 -856 944 -87 22 -262 48 -306 45 -10
-1 -58 -5 -108 -10z m-357 -1074 c76 -33 122 -103 122 -190 0 -87 -46 -157
-122 -190 -72 -30 -171 -13 -227 38 -76 70 -80 217 -8 296 52 56 159 77 235
46z m550 0 c76 -33 122 -103 122 -190 0 -87 -46 -157 -122 -190 -72 -30 -171
-13 -227 38 -76 70 -80 217 -8 296 52 56 159 77 235 46z m550 0 c76 -33 122
-103 122 -190 0 -87 -46 -157 -122 -190 -72 -30 -171 -13 -227 38 -76 70 -80
217 -8 296 52 56 159 77 235 46z"/>
</g>
</svg>
