<?xml version="1.0" standalone="no"?>
<!DOCTYPE svg PUBLIC "-//W3C//DTD SVG 20010904//EN"
 "http://www.w3.org/TR/2001/REC-SVG-20010904/DTD/svg10.dtd">
<svg version="1.0" xmlns="http://www.w3.org/2000/svg"
 width="509.000000pt" height="475.000000pt" viewBox="0 0 509.000000 475.000000"
 preserveAspectRatio="xMidYMid meet">

<g transform="translate(0.000000,475.000000) scale(0.100000,-0.100000)"
fill="#000000" stroke="none">
<path d="M518 4714 c-61 -33 -58 37 -58 -1239 0 -1057 2 -1169 16 -1194 35
-58 0 -56 747 -59 378 -1 687 -6 687 -10 0 -4 -16 -92 -36 -197 l-37 -190
-228 -230 c-142 -143 -230 -240 -234 -257 -9 -37 11 -93 42 -118 25 -20 38
-20 1094 -20 l1069 0 31 28 c24 21 32 38 36 75 l6 48 -233 234 -232 233 -39
193 c-22 106 -39 196 -39 201 0 4 300 8 668 8 426 0 680 4 704 10 22 6 46 23
58 39 20 29 20 37 20 1210 l0 1181 -29 32 -29 33 -1979 2 c-1736 2 -1981 0
-2005 -13z m3822 -1239 l0 -1025 -1825 0 -1825 0 0 1025 0 1025 1825 0 1825 0
0 -1025z m-1436 -1397 c15 -79 30 -155 33 -170 l6 -28 -433 0 -432 0 5 23 c3
12 17 83 32 157 14 74 28 141 30 148 3 9 86 12 368 12 l363 0 28 -142z m246
-543 l115 -115 -755 0 -755 0 115 115 115 115 525 0 525 0 115 -115z"/>
<path d="M2756 4208 c-18 -16 -72 -138 -182 -413 -86 -214 -205 -510 -265
-657 l-108 -268 47 0 c57 0 87 19 108 68 38 91 514 1281 514 1286 0 3 -20 6
-44 6 -32 0 -52 -6 -70 -22z"/>
<path d="M1655 3736 l-330 -171 0 -34 0 -33 335 -174 335 -173 3 51 c2 29 1
61 -2 73 -4 15 -65 50 -240 135 -129 63 -235 117 -235 120 0 3 97 52 216 110
119 58 226 113 239 123 21 16 24 27 24 83 0 35 -3 63 -7 63 -5 -1 -156 -79
-338 -173z"/>
<path d="M3076 3903 c-8 -8 -8 -96 0 -118 4 -9 114 -70 244 -135 l238 -118
-223 -110 c-123 -61 -233 -120 -244 -131 -17 -17 -21 -34 -21 -81 0 -33 3 -60
8 -59 4 0 156 78 337 172 l330 172 3 35 c3 40 62 4 -439 263 -124 64 -229 114
-233 110z"/>
<path d="M880 666 l0 -393 24 -26 c30 -32 63 -41 127 -34 64 8 69 12 60 45 -7
25 -10 27 -58 24 -87 -6 -83 -26 -83 404 l0 374 -35 0 -35 0 0 -394z"/>
<path d="M1870 1005 l0 -55 35 0 35 0 0 55 0 55 -35 0 -35 0 0 -55z"/>
<path d="M3880 878 l0 -182 -47 46 c-69 67 -105 82 -188 83 -59 0 -78 -4 -116
-27 -53 -31 -89 -71 -122 -132 -18 -34 -22 -57 -22 -141 0 -84 4 -107 23 -146
31 -64 86 -117 150 -147 98 -45 225 -16 295 67 28 34 37 31 37 -14 0 -38 26
-65 63 -65 23 0 27 4 27 30 0 18 -6 33 -15 36 -13 5 -15 58 -15 390 l0 384
-35 0 -35 0 0 -182z m-102 -151 c22 -14 53 -43 69 -63 25 -33 28 -48 32 -121
4 -110 -4 -146 -42 -190 -42 -48 -99 -73 -167 -73 -68 0 -121 28 -166 87 -89
117 -54 298 71 371 56 32 146 27 203 -11z"/>
<path d="M200 644 c-91 -218 -166 -403 -168 -410 -3 -10 8 -14 36 -14 l39 0
50 128 51 127 188 3 189 2 50 -126 c27 -69 54 -128 61 -131 7 -2 25 -3 42 -1
l29 3 -167 405 -168 405 -33 3 -34 3 -165 -397z m281 93 l77 -192 -155 -3
c-86 -1 -158 0 -161 2 -2 3 31 93 74 200 43 108 80 193 83 190 3 -3 40 -92 82
-197z"/>
<path d="M1346 814 c-67 -21 -156 -110 -179 -178 -21 -63 -22 -168 -1 -230 24
-69 102 -150 170 -175 110 -42 231 -18 311 61 49 48 53 65 18 74 -19 5 -31 -1
-58 -30 -43 -46 -92 -66 -159 -66 -110 0 -193 72 -222 193 l-6 27 261 0 262 0
-7 57 c-13 115 -82 215 -174 256 -60 26 -154 31 -216 11z m168 -55 c56 -15
121 -85 140 -150 9 -29 12 -57 8 -61 -5 -5 -105 -7 -223 -6 l-214 3 3 33 c3
43 32 100 69 134 56 54 133 70 217 47z"/>
<path d="M2250 817 c-51 -15 -132 -57 -136 -72 -2 -5 2 -18 9 -27 12 -15 18
-14 76 15 50 24 75 31 125 31 80 0 123 -24 154 -84 26 -52 28 -127 2 -122
-126 29 -223 26 -303 -11 -75 -34 -102 -75 -102 -153 0 -79 29 -124 103 -161
45 -22 62 -25 115 -20 70 6 139 33 179 71 34 33 38 33 38 -2 0 -35 27 -62 63
-62 23 0 27 4 27 29 0 16 -7 34 -15 41 -12 10 -15 44 -15 185 0 102 -5 186
-11 206 -18 51 -56 97 -100 120 -50 25 -150 33 -209 16z m213 -308 c36 -12 37
-13 37 -63 0 -101 -74 -168 -191 -174 -82 -5 -127 17 -154 74 -34 73 0 142 85
169 51 17 161 14 223 -6z"/>
<path d="M2980 814 c-49 -17 -104 -55 -133 -91 -29 -36 -37 -28 -37 37 l0 60
-30 0 -30 0 0 -300 0 -300 35 0 35 0 0 185 c0 211 6 235 80 297 90 78 204 75
247 -5 15 -27 18 -65 21 -255 l3 -222 40 0 39 0 0 183 c-1 290 -18 363 -100
405 -51 26 -106 28 -170 6z"/>
<path d="M4675 812 c-70 -23 -156 -109 -180 -181 -23 -71 -17 -199 12 -256 27
-53 84 -110 136 -137 34 -18 58 -23 127 -23 76 0 91 3 138 29 82 46 137 125
152 219 37 234 -168 421 -385 349z m173 -68 c47 -19 88 -58 115 -109 31 -57
30 -173 0 -231 -29 -54 -97 -112 -140 -120 -102 -19 -190 20 -237 107 -108
197 68 434 262 353z"/>
<path d="M1868 479 l-3 -341 -33 -29 c-35 -31 -94 -39 -134 -18 -18 10 -24 8
-39 -12 -17 -22 -17 -25 -2 -37 58 -43 164 -38 219 10 65 57 64 52 64 428 l0
340 -35 0 -34 0 -3 -341z"/>
<path d="M4130 520 l0 -300 40 0 40 0 0 191 c0 178 2 194 22 230 27 49 80 86
146 101 50 12 52 14 52 45 0 29 -3 33 -28 33 -48 0 -132 -49 -166 -97 l-31
-45 -3 71 -3 71 -34 0 -35 0 0 -300z"/>
</g>
</svg>
