<?xml version="1.0" standalone="no"?>
<!DOCTYPE svg PUBLIC "-//W3C//DTD SVG 20010904//EN"
 "http://www.w3.org/TR/2001/REC-SVG-20010904/DTD/svg10.dtd">
<svg version="1.0" xmlns="http://www.w3.org/2000/svg"
 width="800.000000pt" height="600.000000pt" viewBox="0 0 800.000000 600.000000"
 preserveAspectRatio="xMidYMid meet">

<g transform="translate(0.000000,600.000000) scale(0.100000,-0.100000)"
fill="#000000" stroke="none">
<path d="M3710 5224 c-549 -41 -1044 -263 -1434 -643 -65 -64 -149 -154 -186
-201 -258 -324 -424 -720 -481 -1150 -14 -110 -14 -409 0 -525 27 -210 96
-458 190 -674 40 -91 125 -246 141 -256 4 -3 77 7 160 21 1162 196 2993 1065
3858 1831 l43 38 -31 88 c-18 48 -63 149 -100 225 -328 660 -974 1124 -1706
1226 -114 16 -360 27 -454 20z"/>
<path d="M6995 4664 c-16 -2 -73 -9 -125 -15 -146 -16 -427 -66 -615 -110
-258 -59 -555 -142 -555 -154 1 -5 11 -23 24 -39 l24 -28 108 25 c146 35 357
73 512 93 169 22 441 22 545 1 339 -70 387 -283 139 -616 -69 -93 -293 -318
-427 -430 -806 -671 -2192 -1419 -3510 -1894 -1196 -431 -2110 -553 -2353
-315 -54 52 -67 84 -66 168 1 66 5 85 41 160 107 225 340 468 756 789 l108 83
-7 36 c-4 21 -8 40 -11 44 -8 16 -475 -321 -703 -507 -538 -441 -803 -817
-737 -1046 32 -108 149 -188 327 -226 105 -22 448 -25 610 -5 663 81 1492 319
2445 700 1218 487 2475 1166 3305 1785 634 473 972 850 1023 1142 28 160 -75
276 -298 336 -69 19 -111 22 -305 24 -124 2 -238 1 -255 -1z"/>
<path d="M6210 4309 c-102 -9 -399 -55 -407 -63 -3 -2 8 -23 23 -45 l27 -41
116 0 c467 -1 530 -231 166 -608 -478 -497 -1502 -1100 -2610 -1537 -879 -347
-1655 -503 -1952 -394 -68 25 -137 90 -146 138 -16 79 40 214 138 331 100 119
94 108 76 162 l-16 47 -125 -108 c-237 -205 -399 -394 -461 -540 -35 -81 -39
-168 -10 -221 181 -342 1472 -96 2972 565 248 109 840 404 1069 532 665 373
1163 723 1480 1042 133 133 212 234 266 341 35 68 38 82 39 157 0 76 -2 84
-30 118 -41 50 -117 92 -201 110 -91 19 -283 26 -414 14z"/>
<path d="M6007 2434 c-21 -14 -143 -85 -271 -159 -702 -401 -1399 -739 -2139
-1034 -206 -82 -591 -225 -715 -266 l-54 -17 99 -45 c304 -140 684 -215 1018
-200 332 15 593 82 890 227 242 118 403 229 584 405 274 265 480 599 591 960
29 95 44 155 38 155 -2 0 -20 -12 -41 -26z"/>
</g>
</svg>
